 http://www.starshare.ro/bitbucket/Airline.Disaster.2010.DVDRip.XviD.FEEL-FREE.avi_thumbs_%5B2010.07.15_09.23.43%5D.jpg

Genre:Action
Language:English
IMDb:http://www.imdb.com/title/tt1610528/
Source:DVD
Encoder: Tony2

Plot:
When the President learns that domestic terrorists have skyjacked the passenger jet her brother is flying, she must choose between family and the safety of the people in the cities below.

............................................
General
Complete name : Airline.Disaster.2010.DVDRip.XviD.FEEL-FREE
Format : AVI
Format/Info : Audio Video Interleave
File size : 899 MiB
Duration : 1h 29mn
Overall bit rate : 1 405 Kbps
.............................................
Video
Format : xvid
Codec ID : xvid
Duration : 1h 29mn
Bit rate : 1 199 Kbps
Width : 720 pixels
Height : 304 pixels
Display aspect ratio : 2.35:1
Frame rate : 29.970 fps
Resolution : 24 bits
Bits/(Pixel*Frame) : 0.183
Stream size : 767 MiB (85%)
.............................................
Audio
ID : 1
Format : MPEG Audio
Format version : Version 1
Format profile : Layer 3
Format settings, Mode : Joint stereo / MS Stereo
Codec ID : 55
Codec ID/Hint : MP3
Duration : 1h 29mn
Bit rate mode : Constant
Bit rate : 192 Kbps
Channel(s) : 2 channels
Sampling rate : 48.0 KHz
Resolution : 16 bits
Stream size : 123 MiB (14%)
Alignment : Aligned on interleaves
Interleave, duration : 24 ms (0.72 video frame)
Writing library : LAME3.97
..............................................